<?xml version="1.0" encoding="UTF-8"?>
<!DOCTYPE svg PUBLIC "-//W3C//DTD SVG 1.1//EN" "http://www.w3.org/Graphics/SVG/1.1/DTD/svg11.dtd">
<!-- Creator: CorelDRAW 2018 (64-Bit) -->
<svg xmlns="http://www.w3.org/2000/svg" xml:space="preserve" width="297mm" height="210mm" version="1.1" style="shape-rendering:geometricPrecision; text-rendering:geometricPrecision; image-rendering:optimizeQuality; fill-rule:evenodd; clip-rule:evenodd"
viewBox="0 0 29700 21000"
 xmlns:xlink="http://www.w3.org/1999/xlink">
 <defs>
  <style type="text/css">
   <![CDATA[
    .fil1 {fill:blue}
    .fil0 {fill:#373435;fill-rule:nonzero}
    .fil2 {fill:blue;fill-rule:nonzero}
   ]]>
  </style>
 </defs>
 <g id="Layer_x0020_1">
  <metadata id="CorelCorpID_0Corel-Layer"/>
  <path class="fil0" d="M-81.11 -66.22l29755.76 0 0 21185.67 -29755.76 0 0 -21185.67zm29745.76 10l-29735.76 0 0 21165.67 29735.76 0 0 -21165.67z"/>
  <g id="_2011484626960">
   <polygon class="fil1" points="28712.39,-66.22 21887.04,6759.13 21179.94,6052.02 27298.18,-66.22 "/>
   <path class="fil2" d="M28726.53 -66.22l-6839.5 6839.5c-240.07,-240.75 -480.82,-480.85 -721.23,-721.26l6118.24 -6118.24 28.28 0 -6118.24 6118.24 692.96 692.97 6811.21 -6811.21 28.28 0z"/>
   <polygon class="fil1" points="29674.65,355.51 23896.87,6133.29 23189.77,5426.18 28682.17,-66.22 29674.65,-66.22 "/>
   <path class="fil2" d="M29674.65 369.65l-5777.79 5777.79c-240.07,-240.75 -480.82,-480.85 -721.23,-721.26l5492.4 -5492.4 28.28 0 -5492.4 5492.4 692.96 692.97 5777.78 -5777.78 0 28.28z"/>
   <polygon class="fil1" points="29674.65,4507.49 29232.84,4949.3 28525.74,4242.19 29674.65,3093.28 "/>
   <path class="fil2" d="M29674.65 4521.63l-441.82 441.82c-240.07,-240.75 -480.82,-480.85 -721.23,-721.26l1163.05 -1163.05 0 28.28 -1134.77 1134.77 692.96 692.97 441.81 -441.81 0 28.28z"/>
   <polygon class="fil1" points="24512.95,-66.22 23270.2,1176.53 22563.1,469.42 23098.74,-66.22 "/>
   <path class="fil2" d="M24527.09 -66.22l-1256.9 1256.9c-240.07,-240.75 -480.82,-480.85 -721.23,-721.26l535.64 -535.64 28.28 0 -535.64 535.64 692.96 692.97 1228.61 -1228.61 28.28 0z"/>
   <polygon class="fil1" points="29674.65,1739.49 25893.78,5520.36 25186.68,4813.25 29674.65,325.28 "/>
   <path class="fil2" d="M29674.65 1753.63l-3780.88 3780.88c-240.07,-240.75 -480.82,-480.85 -721.23,-721.26l4502.11 -4502.11 0 28.28 -4473.83 4473.83 692.96 692.97 3780.87 -3780.87 0 28.28z"/>
   <polygon class="fil1" points="25907.96,-66.22 22971.65,2870.09 22264.55,2162.98 24493.75,-66.22 "/>
   <path class="fil2" d="M25922.1 -66.22l-2950.46 2950.46c-240.07,-240.75 -480.82,-480.85 -721.23,-721.26l2229.2 -2229.2 28.28 0 -2229.2 2229.2 692.96 692.97 2922.17 -2922.17 28.28 0z"/>
   <polygon class="fil1" points="29674.65,3108.37 27562.21,5220.81 26855.11,4513.7 29674.65,1694.16 "/>
   <path class="fil2" d="M29674.65 3122.51l-2112.45 2112.45c-240.07,-240.75 -480.82,-480.85 -721.23,-721.26l2833.68 -2833.68 0 28.28 -2805.4 2805.4 692.96 692.97 2112.44 -2112.44 0 28.28z"/>
   <polygon class="fil1" points="27341.63,-66.22 22501.5,4773.91 21794.4,4066.8 25927.42,-66.22 "/>
   <path class="fil2" d="M27355.77 -66.22l-4854.28 4854.28c-240.07,-240.75 -480.82,-480.85 -721.23,-721.26l4133.02 -4133.02 28.28 0 -4133.02 4133.02 692.96 692.97 4825.99 -4825.99 28.28 0z"/>
  </g>
  <g id="_2011484652080">
   <polygon class="fil1" points="6701.46,-66.22 -34.98,6670.22 -81.11,6624.09 -81.11,5302.14 5287.25,-66.22 "/>
   <path class="fil2" d="M6715.02 -66.22c-2251.44,2248.65 -4501.57,4498.97 -6750,6750.59l-46.13 -46.18 0 -28.24 46.13 46.13 6722.3 -6722.3 27.7 0zm-6796.13 5353.36c1783.3,-1785.35 3567.64,-3569.86 5352.84,-5353.36l29.66 0 -5382.5 5382.5 0 -29.14z"/>
   <polygon class="fil1" points="8085.45,-66.22 1974.85,6044.38 1267.75,5337.27 6671.24,-66.22 "/>
   <path class="fil2" d="M8098.3 -66.22c-2042.36,2040.34 -4083.6,4082.01 -6123.45,6124.75 -240.24,-240.58 -480.99,-480.68 -721.23,-721.26 1799.51,-1802.06 3600.09,-3603.28 5401.57,-5403.49l30.19 0 -5403.49 5403.49 692.96 692.97 6096.46 -6096.46 26.99 0z"/>
   <polygon class="fil1" points="12237.43,-66.22 7310.82,4860.39 6603.72,4153.28 10823.22,-66.22 "/>
   <path class="fil2" d="M12249.38 -66.22c-1646.99,1646.13 -3293.23,3293.1 -4938.56,4940.76 -240.24,-240.58 -480.99,-480.68 -721.23,-721.26 1405.05,-1407.04 2810.75,-2813.57 4217.02,-4219.5l30.75 0 -4219.5 4219.5 692.96 692.97 4912.47 -4912.47 26.09 0z"/>
   <polygon class="fil1" points="2502.02,-66.22 1348.18,1087.62 641.08,380.51 1087.81,-66.22 "/>
   <path class="fil2" d="M2514.78 -66.22c-388.92,389.29 -777.78,778.62 -1166.6,1167.99 -240.24,-240.58 -480.99,-480.68 -721.23,-721.26l446.14 -446.73 28.86 0 -446.73 446.73 692.96 692.97 1139.7 -1139.7 26.9 0z"/>
   <polygon class="fil1" points="9469.43,-66.22 3971.76,5431.45 3264.66,4724.34 8055.22,-66.22 "/>
   <path class="fil2" d="M9481.75 -66.22c-1837.66,1836.28 -3674.39,3673.61 -5509.99,5511.82 -240.24,-240.58 -480.99,-480.68 -721.23,-721.26 1595.29,-1597.55 3191.43,-3194.45 4788.29,-4790.56l30.54 0 -4790.56 4790.56 692.96 692.97 5483.53 -5483.53 26.46 0z"/>
   <polygon class="fil1" points="3897.03,-66.22 1049.63,2781.18 342.53,2074.07 2482.82,-66.22 "/>
   <path class="fil2" d="M3908.74 -66.22c-953.32,953.6 -1906.37,1907.46 -2859.11,2861.55 -240.24,-240.58 -480.99,-480.68 -721.23,-721.26 712.55,-713.56 1425.28,-1427 2138.16,-2140.29l30.4 0 -2140.29 2140.29 692.96 692.97 2833.26 -2833.26 25.85 0z"/>
   <polygon class="fil1" points="10838.31,-66.22 5640.19,5131.9 4933.09,4424.79 9424.1,-66.22 "/>
   <path class="fil2" d="M10850.42 -66.22c-1737.64,1736.54 -3474.44,3474.02 -5210.23,5212.27 -240.24,-240.58 -480.99,-480.68 -721.23,-721.26 1495.49,-1497.61 2991.74,-2994.65 4488.62,-4491.01l30.66 0 -4491.01 4491.01 692.96 692.97 5183.98 -5183.98 26.25 0z"/>
   <polygon class="fil1" points="5330.7,-66.22 579.48,4685 -81.11,4024.4 -81.11,3931.38 3916.49,-66.22 "/>
   <path class="fil2" d="M5342.57 -66.22c-1588.45,1587.72 -3176.19,3176.22 -4763.09,4765.37 -220.03,-220.34 -440.49,-440.28 -660.59,-660.56l0 -28.33 660.59 660.6 4737.08 -4737.08 26.01 0zm-5423.68 3983.38c1326.42,-1328.28 2653.43,-2656.09 3980.96,-3983.38l30.78 0 -4011.74 4011.74 0 -28.36z"/>
  </g>
 </g>
</svg>
