<?xml version="1.0"?>
<svg xmlns="http://www.w3.org/2000/svg" id="Capa_1" enable-background="new 0 0 512 512" height="512px" viewBox="0 0 512 512" width="512px" class="hovered-paths"><g><g><g><path clip-rule="evenodd" d="m405.78 181.898c39.853-41.335 39.853-108.952 0-150.287-36.199-37.537-94.689-28.124-133.38 6.747-7.138 6.436-9.659 9.639-11.556 9.639-1.926 0-4.447-3.204-11.585-9.639-38.691-34.871-97.181-44.284-133.38-6.747-39.853 41.335-39.853 108.952 0 150.287 44.894 44.567 89.817 89.106 134.739 133.673 5.098 4.054 7.648 6.266 10.225 6.351 2.549-.085 5.098-2.296 10.197-6.351 44.923-44.567 89.846-89.106 134.74-133.673z" fill="#ffcccf" fill-rule="evenodd" data-original="#FFCCCF"/></g><g><path clip-rule="evenodd" d="m442.403 499.425v-133.503c0-2.778-2.294-5.075-5.07-5.075h-351.563c-2.776 0-5.07 2.296-5.07 5.075v133.503c0 2.807 2.294 5.075 5.07 5.075h351.563c2.776 0 5.07-2.268 5.07-5.075z" fill="#c3ddff" fill-rule="evenodd" data-original="#C3DDFF" class="" style="fill:#CC33DD" data-old_color="#c3ddff"/></g><g><path clip-rule="evenodd" d="m489.45 281.352c10.735-11.142 10.735-29.343 0-40.456-.113-.113-.227-.227-.34-.34-9.744-9.696-25.265-7.116-35.547 2.155-1.926 1.729-2.606 2.608-3.144 2.58-.51.028-1.19-.85-3.116-2.58-10.395-9.384-26.143-11.907-35.887-1.814-10.735 11.113-10.735 29.315 0 40.456l4.362 4.309 31.893 31.668c.71.551 1.757 1.689 2.747 1.701.995.012 2.071-1.154 2.776-1.701l31.893-31.668 4.022-3.997z" fill="#ff8086" fill-rule="evenodd" data-original="#FF8086" class="" style="fill:#F30962" data-old_color="#ff8086"/></g><g><path clip-rule="evenodd" d="m290.329 218.555c40.787-41.42 64.098-68.665 18.694-121.624.68 15.593.142 26.933-2.549 36.714-3.654 13.296-11.301 23.701-25.322 37.962l-20.309 20.611 27.701 28.152z" fill="#ff8086" fill-rule="evenodd" data-original="#FF8086" class="" style="fill:#F30962" data-old_color="#ff8086"/></g><g><path clip-rule="evenodd" d="m260.844 248.493-27.73-28.124-38.975 39.181 27.957 27.727 20.478-20.497z" fill="#e5646e" fill-rule="evenodd" data-original="#E5646E"/></g><g><path clip-rule="evenodd" d="m288.545 220.369-27.701-28.152-20.337-20.611c-14.021-14.26-21.668-24.665-25.322-37.962-2.691-9.781-3.201-21.121-2.549-36.714-45.404 52.959-22.065 80.204 18.694 121.624l1.784 1.814 27.73 28.124 18.241 18.286 20.479 20.498 27.956-27.727z" fill="#ff8086" fill-rule="evenodd" data-original="#FF8086" class="" style="fill:#F30962" data-old_color="#ff8086"/></g><g><path clip-rule="evenodd" d="m306.474 133.645c2.691-9.781 3.229-21.121 2.549-36.714-19.827-24.297-76.561-24.297-96.388 0-.651 15.593-.142 26.933 2.549 36.714 20.847-20.555 70.443-20.555 91.29 0z" fill="#e5646e" fill-rule="evenodd" data-original="#E5646E"/></g><g><path clip-rule="evenodd" d="m405.78 181.898c39.853-41.335 39.853-108.952 0-150.287-15.692-16.273-35.547-23.701-56.196-24.098 34.414 41.619 32.63 104.898-5.353 144.277l-13.058 12.956c-5.976 17.606-21.442 34.106-40.844 53.81l-1.784 1.814 38.974 39.181 62.116-61.606z" fill="#e7b1b9" fill-rule="evenodd" data-original="#E7B1B9" class="hovered-path active-path" style="fill:#E7B1B9"/></g><g><path clip-rule="evenodd" d="m299.563 287.277-20.479-20.498-18.241-18.286-18.269 18.286-20.479 20.498 28.523 28.294c5.098 4.054 7.648 6.266 10.225 6.351 2.549-.085 5.098-2.296 10.197-6.351z" fill="#e7b1b9" fill-rule="evenodd" data-original="#E7B1B9" class="hovered-path active-path" style="fill:#E7B1B9"/></g><g><path clip-rule="evenodd" d="m442.403 499.425v-133.503c0-2.778-2.294-5.075-5.07-5.075h-33.111c2.776 0 5.07 2.296 5.07 5.075v133.503c0 2.807-2.294 5.075-5.07 5.075h33.111c2.776 0 5.07-2.268 5.07-5.075z" fill="#9dc6fb" fill-rule="evenodd" data-original="#9DC6FB" class="" style="fill:#C525CB" data-old_color="#9dc6fb"/></g><g><path clip-rule="evenodd" d="m489.45 281.352c10.735-11.142 10.735-29.343 0-40.456l-.34-.34c-6.061-6.039-14.332-7.314-22.206-5.217 9.829 11.199 9.517 28.691-.906 39.492l-4.334 4.309-26.228 26.026 12.236 12.162c.71.551 1.757 1.689 2.747 1.701.995.012 2.071-1.154 2.776-1.701l31.893-31.668 4.022-3.997z" fill="#e5646e" fill-rule="evenodd" data-original="#E5646E"/></g><g><path clip-rule="evenodd" d="m100.584 281.352c10.707-11.142 10.707-29.343 0-40.456-.113-.113-.227-.227-.34-.34-9.772-9.696-25.265-7.116-35.576 2.155-1.926 1.729-2.606 2.608-3.116 2.58-.51.028-1.19-.85-3.116-2.58-10.395-9.384-26.143-11.907-35.887-1.814-10.735 11.113-10.735 29.315 0 40.456l4.334 4.309 31.922 31.668c1.388 1.077 2.068 1.673 2.747 1.701.68-.028 1.388-.624 2.747-1.701l31.922-31.668 4.022-3.997z" fill="#ff8086" fill-rule="evenodd" data-original="#FF8086" class="" style="fill:#F30962" data-old_color="#ff8086"/></g><g><path clip-rule="evenodd" d="m100.584 281.352c10.707-11.142 10.707-29.343 0-40.456l-.34-.34c-6.061-6.039-14.36-7.314-22.235-5.217 9.829 11.199 9.545 28.691-.878 39.492l-4.362 4.309-26.228 26.026 12.264 12.162c1.388 1.077 2.068 1.673 2.747 1.701.68-.028 1.388-.624 2.747-1.701l31.922-31.668 4.022-3.997z" fill="#e5646e" fill-rule="evenodd" data-original="#E5646E"/></g><g><path clip-rule="evenodd" d="m260.844 192.217 27.701 28.152 12.718-12.984-26.937-27.699z" fill="#e5646e" fill-rule="evenodd" data-original="#E5646E"/></g><g><path d="m134.156 392.044c-3.134.977-5.27 3.878-5.27 7.161v67.078c0 4.143 3.358 7.5 7.5 7.5s7.5-3.357 7.5-7.5v-42.999l31.667 45.9c2.248 3.226 5.969 4.595 9.473 3.495 3.588-1.128 5.907-4.528 5.907-8.735l-.623-64.952c-.04-4.117-3.389-7.428-7.498-7.428-.024 0-.049 0-.073 0-4.142.04-7.468 3.43-7.428 7.572l.421 43.892-33.172-48.081c-1.865-2.705-5.273-3.876-8.404-2.903z" data-original="#000000" class="" style="fill:#000000"/><path d="m258.521 406.564c5.202 0 10.246 1.547 14.586 4.474 3.436 2.317 8.096 1.409 10.412-2.025 2.315-3.435 1.408-8.096-2.025-10.412-6.827-4.603-14.771-7.036-22.973-7.036-22.658 0-41.093 18.448-41.093 41.124 0 22.66 18.434 41.095 41.093 41.095 21.477 0 36.477-16.899 36.477-41.095 0-4.143-3.357-7.5-7.5-7.5h-20.082c-4.143 0-7.5 3.357-7.5 7.5s3.357 7.5 7.5 7.5h11.837c-1.982 9.698-8.121 18.595-20.732 18.595-14.387 0-26.092-11.706-26.092-26.095-.001-14.406 11.704-26.125 26.092-26.125z" data-original="#000000" class="" style="fill:#000000"/><path d="m394.218 432.688c0-22.676-18.422-41.124-41.065-41.124-22.658 0-41.093 18.448-41.093 41.124 0 22.66 18.435 41.095 41.093 41.095 22.643 0 41.065-18.435 41.065-41.095zm-67.158 0c0-14.405 11.705-26.124 26.093-26.124 14.372 0 26.065 11.719 26.065 26.124 0 14.389-11.692 26.095-26.065 26.095-14.388 0-26.093-11.706-26.093-26.095z" data-original="#000000" class="" style="fill:#000000"/><path d="m437.334 353.347-152.81-.028h-.001c-4.142 0-7.499 3.357-7.5 7.499s3.356 7.5 7.499 7.501l150.382.028v128.653h-346.704v-128.653l155.962-.028c4.142-.001 7.5-3.359 7.499-7.501-.001-4.143-3.359-7.5-7.502-7.499l-158.389.028c-6.931 0-12.57 5.642-12.57 12.575v133.503c0 6.934 5.639 12.575 12.57 12.575h351.563c6.932 0 12.57-5.642 12.57-12.575v-133.503c.001-6.934-5.638-12.575-12.569-12.575z" data-original="#000000" class="" style="fill:#000000"/><path d="m494.846 235.686c-11.361-11.769-30.097-11.692-44.413-.161-14.331-11.535-33.057-11.602-44.411.16-13.53 14.009-13.533 36.829-.007 50.87.043.045.087.089.131.133l36.242 35.963c2.097 2.087 5.009 3.879 8.031 3.879 3.032 0 5.956-1.785 8.06-3.879l36.242-35.963c.044-.044.088-.088.131-.133 13.526-14.041 13.524-36.861-.006-50.869zm-10.737 40.401-33.675 33.415-29.385-29.177-4.291-4.238c-7.932-8.3-7.915-21.732.054-29.983 6.975-7.223 18.327-4.272 25.481 2.186.533.479.959.885 1.307 1.216 1.387 1.32 3.45 3.286 6.762 3.286.037.001.075.001.116 0 3.332 0 5.419-1.983 6.82-3.314.343-.326.759-.723 1.291-1.2 7.14-6.446 18.491-9.398 25.468-2.172 7.967 8.249 7.983 21.681.052 29.981z" data-original="#000000" class="" style="fill:#000000"/><path d="m105.854 286.688c.046-.046.092-.093.138-.14 13.488-14.037 13.485-36.852-.012-50.863-11.347-11.754-30.081-11.687-44.425-.171-14.327-11.522-33.046-11.59-44.399.17-13.531 14.009-13.534 36.829-.007 50.87.038.039.075.077.113.115l36.261 35.983c2.103 2.084 5.003 3.877 8.03 3.877 3.042 0 5.919-1.787 8.03-3.877l31.91-31.656zm-10.616-10.598-33.685 33.4-33.653-33.395c-7.941-8.3-7.927-21.737.046-29.991 6.975-7.224 18.326-4.272 25.48 2.187.534.479.959.885 1.307 1.216 1.387 1.32 3.45 3.285 6.761 3.285h.059c3.358.062 5.425-1.957 6.82-3.285.348-.331.773-.737 1.314-1.223 7.16-6.445 18.53-9.399 25.496-2.186 7.949 8.253 7.967 21.688.055 29.992z" data-original="#000000" class="" style="fill:#000000"/><path d="m110.594 187.219 22.093 21.943c2.938 2.918 7.687 2.901 10.607-.036 2.919-2.938 2.903-7.688-.036-10.607l-22.035-21.886c-37.126-38.569-37.107-101.273.055-139.817 34.755-36.036 89.292-23.231 122.959 7.112 2.105 1.897 3.829 3.538 5.214 4.855 4.25 4.042 7.057 6.713 11.393 6.713 4.312 0 7.103-2.656 11.327-6.678 1.394-1.326 3.127-2.976 5.25-4.89 33.668-30.345 88.206-43.151 122.96-7.114 37.162 38.545 37.179 101.253.054 139.821l-16.081 15.983-56.797 56.334-28.466-28.617c20.143-20.599 34.739-37.137 40.126-56.229 6.298-22.319-1.487-45.216-24.498-72.058-.018-.021-.04-.038-.059-.059-10.763-13.014-30.854-20.781-53.83-20.781-22.979 0-43.072 7.769-53.833 20.786-.017.02-.037.035-.054.054-23.01 26.839-30.791 49.736-24.488 72.059 5.386 19.076 19.976 35.617 40.117 56.227l-28.461 28.611-27.77-27.55c-2.94-2.916-7.689-2.897-10.607.042-2.918 2.94-2.898 7.689.042 10.607l32.984 32.722c.032.033.059.069.092.101.034.034.072.063.107.096l27.819 27.598c.007.007.012.014.019.021.008.008.016.014.024.021l28.517 28.291c1.456 1.445 7.247 7.104 11.497 8.477 4.95 1.6 10.301-.239 14-3.707 1.809-1.696 3.718-3.016 5.488-4.769l118.6-117.633 16.146-16.047c.038-.037.075-.075.112-.114 42.714-44.304 42.714-116.393-.001-160.698-18.459-19.138-43.96-28.393-71.785-26.045-25.633 2.159-51.209 13.676-72.018 32.43-2.273 2.051-4.089 3.778-5.547 5.166-.329.312-.667.635-1 .949-.346-.326-.699-.662-1.041-.987-1.45-1.38-3.254-3.096-5.509-5.129-20.807-18.753-46.383-30.27-72.016-32.429-27.833-2.347-53.325 6.905-71.784 26.046-42.716 44.305-42.716 116.394 0 160.699.037.039.075.078.114.116zm205.802-67.939c21.82 34.986 5.516 56.248-27.859 90.394l-17.181-17.44 15.142-15.367c20.277-20.602 28.169-34.256 29.898-57.587zm-55.568 62.267-14.973-15.199c-11.502-11.7-18.289-20.297-22.026-30.252 8.758-6.548 22.195-10.368 37-10.368 14.809 0 28.249 3.822 37.007 10.374-3.735 9.959-10.521 18.55-22.026 30.24zm-40.8-81.644c8.271-8.497 23.606-13.695 40.801-13.695 17.196 0 32.531 5.198 40.802 13.695.279 7.996.216 14.691-.364 20.582-22.766-13.013-58.104-13.022-80.874-.011-.581-5.888-.644-12.58-.365-20.571zm-15.27 159.607 28.334-28.484 17.186 17.432-28.204 28.23zm61.289 50.45s-4.118 3.705-5.218 4.456c-1.103-.75-5.218-4.456-5.218-4.456l-22.889-22.708 28.12-28.145 28.099 28.146zm33.544-33.27-62.916-63.396c-35.732-36.311-53.974-57.825-31.411-94.015 1.731 23.309 9.626 36.968 29.9 57.591l81.742 82.646z" data-original="#000000" class="" style="fill:#000000"/></g></g></g> </svg>
