<?xml version="1.0"?>
<svg xmlns="http://www.w3.org/2000/svg" xmlns:xlink="http://www.w3.org/1999/xlink" version="1.1" id="Capa_1" x="0px" y="0px" viewBox="0 0 480 480" style="enable-background:new 0 0 480 480;" xml:space="preserve" width="512px" height="512px" class=""><g><g>
	<g>
		<path d="M472,344h-40V32c0-17.673-14.327-32-32-32H80C62.327,0,48,14.327,48,32v320H8c-4.418,0-8,3.582-8,8v64    c0,4.418,3.582,8,8,8h40v16c0,17.673,14.327,32,32,32h368c17.673,0,32-14.327,32-32v-96C480,347.582,476.418,344,472,344z M40,416    H16v-48h24V416z M64,32c0-8.837,7.163-16,16-16h320c8.837,0,16,7.163,16,16v32H64V32z M56,416v-48h16v48H56z M80,464    c-8.837,0-16-7.163-16-16v-16h256c1.237-0.022,2.452-0.337,3.544-0.92v0.08l64-32c3.954-1.971,5.562-6.774,3.591-10.729    c-0.775-1.556-2.036-2.816-3.591-3.591l-64-32v0.08c-1.092-0.583-2.307-0.898-3.544-0.92H64V80h352v368    c0.033,5.634,1.569,11.157,4.448,16H80z M312,400v16H88v-16H312z M88,384v-16h224v16H88z M328,411.056v-38.112L366.112,392    L328,411.056z M464,448c0,8.837-7.163,16-16,16s-16-7.163-16-16v-88h32V448z" data-original="#000000" class="active-path" data-old_color="#000000" fill="#FFFFFF"/>
	</g>
</g><g>
	<g>
		<path d="M192,104H96c-4.418,0-8,3.582-8,8v96c0,4.418,3.582,8,8,8h96c4.418,0,8-3.582,8-8v-96C200,107.582,196.418,104,192,104z     M184,200h-80v-80h80V200z" data-original="#000000" class="active-path" data-old_color="#000000" fill="#FFFFFF"/>
	</g>
</g><g>
	<g>
		<rect x="224" y="136" width="168" height="16" data-original="#000000" class="active-path" data-old_color="#000000" fill="#FFFFFF"/>
	</g>
</g><g>
	<g>
		<rect x="224" y="168" width="168" height="16" data-original="#000000" class="active-path" data-old_color="#000000" fill="#FFFFFF"/>
	</g>
</g><g>
	<g>
		<rect x="224" y="200" width="136" height="16" data-original="#000000" class="active-path" data-old_color="#000000" fill="#FFFFFF"/>
	</g>
</g><g>
	<g>
		<rect x="288" y="104" width="104" height="16" data-original="#000000" class="active-path" data-old_color="#000000" fill="#FFFFFF"/>
	</g>
</g><g>
	<g>
		<path d="M384,240H96c-4.418,0-8,3.582-8,8v64c0,4.418,3.582,8,8,8h288c4.418,0,8-3.582,8-8v-64C392,243.582,388.418,240,384,240z     M376,304H104v-48h272V304z" data-original="#000000" class="active-path" data-old_color="#000000" fill="#FFFFFF"/>
	</g>
</g><g>
	<g>
		<rect x="256" y="104" width="16" height="16" data-original="#000000" class="active-path" data-old_color="#000000" fill="#FFFFFF"/>
	</g>
</g><g>
	<g>
		<rect x="80" y="32" width="16" height="16" data-original="#000000" class="active-path" data-old_color="#000000" fill="#FFFFFF"/>
	</g>
</g><g>
	<g>
		<rect x="112" y="32" width="16" height="16" data-original="#000000" class="active-path" data-old_color="#000000" fill="#FFFFFF"/>
	</g>
</g><g>
	<g>
		<rect x="144" y="32" width="16" height="16" data-original="#000000" class="active-path" data-old_color="#000000" fill="#FFFFFF"/>
	</g>
</g></g> </svg>
